<svg fill="none" height="14" viewBox="0 0 24 24" width="14" xmlns="http://www.w3.org/2000/svg"><g stroke="#014e8c"><path d="m7.5 2.754a.25.25 0 0 1 0-.5"/><path d="m7.5 2.754a.25.25 0 0 0 0-.5"/><path d="m.5 4.504h20" stroke-linecap="round" stroke-linejoin="round"/><path d="m8.5 16.5h-6a2 2 0 0 1 -2-2v-12a2 2 0 0 1 2-2h16a2 2 0 0 1 2 2v6" stroke-linecap="round" stroke-linejoin="round"/><path d="m3.5 2.754a.25.25 0 0 1 0-.5"/><path d="m3.5 2.754a.25.25 0 0 0 0-.5"/><path d="m5.5 2.754a.25.25 0 0 1 0-.5"/><path d="m5.5 2.754a.25.25 0 0 0 0-.5"/><path d="m17.5 23.5a6 6 0 1 0 0-12 6 6 0 0 0 0 12z" stroke-linecap="round" stroke-linejoin="round"/><path d="m15.625 16.041a1.875 1.875 0 1 1 1.875 1.875v1" stroke-linecap="round" stroke-linejoin="round"/><path d="m17.5 21.416a.25.25 0 1 1 0-.5"/><path d="m17.5 21.416a.25.25 0 1 0 0-.5"/></g></svg>