<svg height="14" viewBox="0 0 24 24" width="14" xmlns="http://www.w3.org/2000/svg"><g fill="none" stroke="#014e8c" stroke-linecap="round" stroke-linejoin="round"><path d="m4.5 3.001h15s1 0 1 1v10s0 1-1 1h-15s-1 0-1-1v-10s0-1 1-1"/><path d="m4.409 15a1.025 1.025 0 0 0 -.883.5l-2.385 4a1 1 0 0 0 .883 1.5h19.952a1 1 0 0 0 .883-1.5l-2.385-4a1.025 1.025 0 0 0 -.883-.5"/><path d="m9.5 19.001h5"/><path d="m11.129 5.65-4.339 1.735a.125.125 0 0 0 0 .232l4.339 1.736a1 1 0 0 0 .742 0l4.629-1.853-4.629-1.85a1 1 0 0 0 -.742 0z"/><path d="m8.5 10v1.5a3.976 3.976 0 0 0 3 1 3.976 3.976 0 0 0 3-1v-1.5"/><path d="m16.5 7.501v5"/></g></svg>