<svg height="14" viewBox="0 0 24 24" width="14" xmlns="http://www.w3.org/2000/svg"><g fill="none" stroke="#014e8c" stroke-linecap="round" stroke-linejoin="round"><path d="m23.5 2a1 1 0 0 0 -1-1h-21a1 1 0 0 0 -1 1v20a1 1 0 0 0 1 1h21a1 1 0 0 0 1-1z"/><path d="m20.5 9a.5.5 0 0 1 -.5.5h-16a.5.5 0 0 1 -.5-.5v-4.5a.5.5 0 0 1 .5-.5h16a.5.5 0 0 1 .5.5z"/><path d="m3.5 12.5h7"/><path d="m3.5 15.5h7"/><path d="m3.5 18.5h7"/><path d="m13.5 12.5h7"/><path d="m13.5 15.5h7"/><path d="m13.5 18.5h7"/></g></svg>