<svg fill="none" height="14" viewBox="0 0 24 24" width="14" xmlns="http://www.w3.org/2000/svg"><g stroke="#014e8c"><g stroke-linecap="round" stroke-linejoin="round"><path d="m21.5 4.5a2 2 0 0 1 -2 2h-17a2 2 0 0 1 -2-2v-2a2 2 0 0 1 2-2h17a2 2 0 0 1 2 2z"/><path d="m2.5 12.5a2 2 0 0 1 -2-2v-2a2 2 0 0 1 2-2h17a2 2 0 0 1 2 2v1.5"/><path d="m9 18.5h-6.5a2 2 0 0 1 -2-2v-2a2 2 0 0 1 2-2h8"/><path d="m17.5 23.5a6 6 0 1 0 0-12 6 6 0 0 0 0 12z"/><path d="m19.5 17.5h-2v-3"/></g><path d="m4.75 3.75a.25.25 0 0 1 0-.5"/><path d="m4.75 3.75a.25.25 0 0 0 0-.5"/><path d="m8.25 3.75a.25.25 0 0 1 0-.5"/><path d="m8.25 3.75a.25.25 0 0 0 0-.5"/><path d="m4.75 9.75a.25.25 0 0 1 0-.5"/><path d="m4.75 9.75a.25.25 0 0 0 0-.5"/><path d="m4.75 15.75a.25.25 0 1 1 0-.5"/><path d="m4.75 15.75a.25.25 0 1 0 0-.5"/><path d="m8.25 9.75a.25.25 0 0 1 0-.5"/><path d="m8.25 9.75a.25.25 0 0 0 0-.5"/><path d="m8.25 15.75a.25.25 0 1 1 0-.5"/><path d="m8.25 15.75a.25.25 0 1 0 0-.5"/></g></svg>